<?xml version="1.0" standalone="no"?>
<!DOCTYPE svg PUBLIC "-//W3C//DTD SVG 20010904//EN"
 "http://www.w3.org/TR/2001/REC-SVG-20010904/DTD/svg10.dtd">
<svg version="1.0" xmlns="http://www.w3.org/2000/svg"
 width="400.000000pt" height="351.000000pt" viewBox="0 0 400.000000 351.000000"
 preserveAspectRatio="xMidYMid meet">
<metadata>
Created by potrace 1.15, written by Peter Selinger 2001-2017
</metadata>
<g transform="translate(0.000000,351.000000) scale(0.100000,-0.100000)"
fill="#000000" stroke="none">
<path d="M1780 3504 c-83 -10 -220 -37 -225 -44 -3 -5 -24 -11 -48 -15 -23 -4
-60 -15 -82 -25 -22 -10 -59 -24 -82 -31 -24 -6 -43 -16 -43 -21 0 -4 -6 -8
-14 -8 -17 0 -159 -73 -192 -99 -15 -12 -33 -21 -41 -21 -7 0 -16 -7 -19 -15
-4 -8 -10 -15 -16 -15 -8 0 -118 -84 -177 -134 -28 -25 -143 -142 -162 -165
-69 -84 -89 -111 -89 -120 0 -6 -5 -11 -10 -11 -6 0 -18 -16 -27 -35 -9 -19
-20 -35 -23 -35 -4 0 -15 -18 -25 -40 -10 -22 -21 -40 -25 -40 -4 0 -15 -21
-25 -47 -10 -27 -24 -53 -31 -60 -6 -7 -18 -32 -25 -57 -7 -26 -16 -46 -20
-46 -4 0 -15 -31 -25 -70 -10 -38 -21 -70 -25 -70 -4 0 -12 -30 -19 -67 -7
-38 -16 -72 -20 -78 -12 -15 -30 -178 -33 -290 -3 -168 4 -374 14 -380 5 -4 9
-21 9 -39 0 -17 4 -36 9 -42 4 -5 14 -38 21 -74 6 -36 15 -69 20 -75 4 -5 15
-37 25 -70 9 -33 20 -64 24 -70 4 -5 16 -32 26 -60 10 -27 21 -52 25 -55 4 -3
17 -25 29 -50 11 -25 32 -63 45 -85 14 -22 34 -57 46 -77 11 -21 25 -38 30
-38 6 0 10 -6 10 -14 0 -8 8 -21 18 -28 11 -7 21 -18 23 -24 6 -17 66 -88 130
-152 54 -55 83 -81 158 -140 18 -15 45 -37 60 -49 14 -13 29 -23 33 -23 4 0
35 -20 71 -44 35 -24 80 -49 100 -57 20 -7 37 -16 37 -20 0 -4 23 -15 50 -25
28 -10 50 -21 50 -25 0 -4 30 -15 68 -25 37 -10 69 -21 72 -24 5 -7 90 -31
205 -57 139 -33 775 -19 775 17 0 4 32 13 70 20 39 7 70 16 70 20 0 3 21 11
46 18 25 7 74 26 109 42 35 17 69 30 75 30 5 0 10 4 10 9 0 4 20 16 45 25 25
10 45 21 45 26 0 5 10 12 22 16 25 8 104 60 162 107 21 18 52 43 69 57 46 37
188 180 217 218 14 19 32 41 40 50 57 64 190 290 190 323 0 5 4 9 9 9 5 0 15
17 21 38 7 20 18 51 26 67 28 64 64 183 75 250 6 39 15 79 20 90 28 61 27 530
0 590 -5 11 -15 56 -21 100 -7 44 -18 94 -25 110 -8 17 -19 50 -26 75 -7 25
-16 47 -19 50 -3 3 -14 30 -24 60 -21 58 -92 201 -124 247 -24 35 -54 81 -67
102 -5 9 -20 28 -32 41 -13 14 -29 32 -35 40 -7 9 -30 37 -51 63 -44 54 -46
56 -123 124 -98 86 -119 103 -125 103 -3 0 -19 11 -35 25 -46 40 -51 44 -88
62 -20 9 -36 20 -36 23 0 4 -19 15 -42 26 -24 10 -49 24 -56 31 -7 7 -18 13
-23 13 -5 0 -38 14 -72 30 -35 17 -70 30 -78 30 -8 0 -24 7 -36 15 -12 8 -45
20 -75 26 -29 6 -57 15 -63 19 -5 5 -48 16 -95 25 -63 13 -148 18 -330 20
-135 2 -261 1 -280 -1z m335 -44 c3 -5 29 -10 57 -10 64 0 261 -29 268 -39 3
-5 30 -14 60 -21 30 -7 60 -16 65 -20 6 -3 30 -13 55 -20 25 -8 70 -27 100
-42 30 -15 61 -28 68 -28 6 0 12 -4 12 -9 0 -5 23 -17 50 -27 28 -10 50 -21
50 -26 0 -4 14 -15 32 -24 17 -9 36 -20 42 -25 6 -5 39 -30 74 -55 66 -49 292
-268 292 -284 0 -5 8 -15 18 -22 19 -15 40 -44 48 -70 4 -10 10 -18 15 -18 5
0 17 -16 26 -35 9 -19 20 -35 24 -35 4 0 15 -20 25 -45 9 -25 20 -45 23 -45 4
0 15 -22 25 -50 10 -27 21 -50 25 -50 4 0 15 -26 25 -57 10 -32 22 -62 26 -68
4 -5 13 -32 20 -60 8 -27 17 -52 21 -55 4 -3 14 -45 22 -95 15 -89 15 -89 -7
-110 -13 -12 -29 -33 -37 -47 -8 -14 -25 -45 -38 -69 -13 -23 -29 -49 -37 -56
-7 -7 -18 -29 -25 -48 -7 -19 -19 -37 -26 -39 -10 -4 -13 13 -14 77 -1 45 -4
107 -7 137 -7 54 -8 55 -41 58 -40 4 -47 -4 -61 -78 -6 -30 -15 -64 -20 -75
-6 -11 -16 -47 -25 -80 -8 -33 -23 -96 -35 -140 -11 -44 -20 -90 -20 -102 0
-13 -5 -23 -11 -23 -6 0 -9 -12 -7 -27 3 -24 8 -29 37 -31 40 -4 47 5 56 70 4
26 10 48 14 48 4 0 16 46 27 103 l19 102 5 -100 5 -100 28 -3 c35 -4 57 15 83
68 28 58 48 62 39 8 -4 -24 -11 -45 -15 -48 -7 -5 -30 -110 -30 -137 0 -18 57
-17 76 1 8 8 21 50 29 93 9 43 20 86 25 95 5 10 15 49 21 88 9 50 16 70 27 70
13 0 14 -20 8 -152 -4 -84 -11 -154 -17 -156 -5 -2 -9 -14 -9 -27 0 -37 -30
-198 -39 -209 -5 -6 -14 -35 -22 -64 -7 -28 -16 -52 -19 -52 -4 0 -12 -19 -19
-42 -20 -66 -79 -183 -133 -265 -15 -23 -28 -46 -28 -52 0 -5 -6 -14 -14 -18
-7 -4 -21 -24 -31 -43 -10 -19 -26 -41 -36 -48 -11 -7 -19 -17 -19 -21 0 -9
-199 -210 -247 -249 -15 -13 -38 -29 -50 -34 -13 -6 -23 -15 -23 -19 0 -5 -15
-16 -32 -25 -18 -9 -35 -20 -38 -24 -3 -3 -21 -15 -40 -26 -19 -10 -37 -21
-40 -24 -8 -9 -152 -77 -177 -85 -13 -3 -23 -10 -23 -14 0 -4 -22 -13 -50 -20
-27 -7 -50 -16 -50 -21 0 -4 -39 -16 -87 -26 -49 -10 -90 -21 -93 -25 -11 -15
-205 -32 -375 -33 -166 0 -346 16 -370 33 -5 4 -47 16 -92 26 -46 10 -83 21
-83 25 0 3 -22 13 -50 20 -27 7 -50 17 -50 20 0 4 -19 13 -42 20 -24 8 -54 21
-68 30 -14 9 -40 22 -57 29 -18 8 -33 17 -33 20 0 4 -16 13 -35 21 -20 8 -43
22 -52 32 -9 10 -20 18 -25 18 -5 0 -29 16 -52 35 -24 19 -46 35 -50 35 -12 0
-256 248 -256 259 0 7 -6 14 -13 17 -8 3 -34 35 -58 72 -24 37 -48 72 -54 78
-10 10 -102 193 -143 284 -11 25 -23 60 -27 77 -4 18 -10 33 -14 33 -7 0 -41
158 -41 193 0 9 -4 17 -10 17 -5 0 -10 9 -10 20 0 11 4 20 8 20 5 0 17 44 27
98 10 53 23 100 29 104 6 4 44 8 84 8 l72 0 0 30 0 30 -70 0 -71 0 7 38 c4 20
10 39 14 42 4 3 11 28 16 55 l9 50 80 3 c89 3 105 12 105 53 l0 29 -144 0
c-155 0 -156 0 -156 -56 0 -15 6 -24 16 -24 9 0 14 -6 11 -13 -2 -7 -10 -39
-16 -72 -7 -33 -16 -69 -21 -80 -5 -11 -11 -27 -13 -35 -3 -8 -6 10 -6 39 -1
74 20 285 29 291 4 3 15 47 25 98 9 50 21 92 25 92 4 0 10 14 14 30 3 17 16
54 29 83 14 28 27 61 31 72 3 11 19 45 36 75 16 30 39 73 51 95 12 22 24 42
28 45 3 3 14 20 25 39 10 19 26 42 35 52 9 10 25 30 36 45 32 44 272 284 283
284 6 0 17 8 24 18 7 9 29 26 48 36 19 11 44 28 54 38 11 10 25 18 32 18 7 0
17 6 21 13 4 7 28 21 53 32 25 11 47 22 50 26 3 3 26 14 53 24 26 10 47 21 47
24 0 4 28 15 63 26 34 10 67 21 72 25 6 4 32 13 60 19 27 7 54 16 60 21 15 12
204 40 273 40 33 0 64 5 67 10 3 6 44 10 90 10 46 0 87 -4 90 -10z"/>
<path d="M748 2005 c-10 -13 -18 -29 -18 -34 0 -6 -4 -11 -9 -11 -5 0 -17 -22
-27 -50 -10 -27 -21 -50 -25 -50 -3 0 -14 -21 -24 -47 -10 -27 -21 -50 -25
-53 -18 -13 -130 -243 -130 -268 0 -19 5 -22 40 -22 29 0 40 4 40 15 0 8 4 15
9 15 4 0 16 21 26 47 25 65 35 73 94 73 l51 0 0 -75 0 -75 40 0 c22 0 41 1 41
3 5 8 24 516 21 535 -4 19 -11 22 -46 22 -32 -1 -45 -6 -58 -25z"/>
<path d="M3158 2005 c-10 -13 -18 -29 -18 -34 0 -6 -4 -11 -9 -11 -4 0 -16
-21 -26 -47 -10 -27 -21 -50 -25 -53 -3 -3 -14 -27 -24 -53 -10 -27 -47 -103
-82 -170 -73 -138 -78 -160 -36 -155 22 2 34 15 64 73 21 39 40 75 43 80 3 6
7 5 11 -2 3 -8 26 -13 56 -13 l51 0 -5 -62 c-3 -35 -3 -69 -1 -75 3 -8 21 -13
43 -13 37 0 38 1 44 43 3 23 8 149 12 280 l7 237 -44 0 c-35 -1 -48 -6 -61
-25z"/>
<path d="M1006 2003 c-3 -10 -24 -88 -46 -173 -23 -85 -47 -168 -55 -185 -7
-16 -16 -51 -20 -77 -4 -27 -12 -48 -17 -48 -5 0 -8 -10 -6 -22 2 -18 10 -24
39 -26 l35 -3 17 78 c34 156 47 184 62 126 3 -16 18 -65 32 -110 24 -79 27
-83 54 -83 16 0 29 5 29 11 0 6 -16 63 -35 126 -19 64 -35 122 -35 131 0 8 45
68 101 134 55 65 97 123 94 128 -3 6 -17 10 -30 10 -18 0 -45 -26 -111 -105
-48 -58 -89 -104 -91 -101 -2 2 5 37 17 77 28 101 27 129 -4 129 -15 0 -27 -7
-30 -17z"/>
<path d="M1282 2008 c-18 -18 -14 -38 8 -38 11 0 20 -5 20 -10 0 -6 -25 -107
-55 -225 -30 -119 -55 -224 -55 -235 0 -19 7 -20 104 -20 85 0 105 3 110 16
12 31 5 34 -69 34 -41 0 -75 3 -75 6 0 6 16 72 41 167 l10 37 69 0 c59 0 71 3
80 20 17 32 4 40 -67 40 l-65 0 6 34 c4 19 13 57 22 85 l15 51 84 0 c84 0 85
0 85 25 l0 25 -128 0 c-86 0 -132 -4 -140 -12z"/>
<path d="M1654 1988 c-46 -40 -74 -102 -76 -163 -1 -55 16 -77 72 -94 53 -16
65 -40 50 -100 -16 -66 -55 -113 -88 -109 -25 3 -28 8 -36 66 -7 47 -13 62
-26 62 -41 0 -52 -58 -25 -123 19 -45 47 -61 98 -54 74 10 147 112 147 205 0
60 -11 74 -79 103 l-53 22 4 48 c6 55 48 119 78 119 24 0 38 -26 46 -85 5 -34
11 -45 24 -45 35 0 44 25 31 87 -15 74 -33 93 -87 93 -35 0 -51 -7 -80 -32z"/>
<path d="M1865 2000 c-10 -32 3 -40 66 -40 32 0 59 -3 59 -6 0 -3 -25 -102
-55 -219 -30 -118 -55 -224 -55 -235 0 -15 7 -20 25 -20 14 0 28 7 31 15 3 8
32 115 63 237 l57 223 61 3 c64 3 90 19 79 47 -4 13 -32 15 -165 15 -151 0
-160 -1 -166 -20z"/>
<path d="M2260 2001 c-5 -11 -21 -64 -34 -118 -13 -54 -40 -160 -60 -236 -20
-76 -36 -145 -36 -153 0 -17 46 -19 57 -1 13 21 133 509 127 518 -10 16 -43 9
-54 -10z"/>
<path d="M2465 2002 c-107 -66 -185 -309 -145 -454 14 -49 43 -68 104 -68 44
0 53 4 85 38 30 31 101 177 101 206 0 4 -35 6 -79 6 -69 0 -79 -2 -84 -19 -6
-26 0 -31 40 -31 18 0 33 -2 33 -4 0 -2 -7 -23 -15 -47 -18 -51 -61 -99 -87
-99 -22 0 -48 54 -48 98 0 44 46 216 66 249 29 46 67 83 85 83 22 0 49 -37 49
-66 0 -35 23 -48 49 -27 21 18 21 19 6 70 -9 29 -25 59 -38 68 -29 20 -85 19
-122 -3z"/>
<path d="M2698 2014 c-14 -13 -9 -44 7 -44 8 0 15 -6 15 -14 0 -8 -25 -112
-55 -231 -30 -119 -55 -222 -55 -230 0 -18 45 -21 56 -4 3 6 18 57 33 112 22
87 29 102 47 105 23 3 30 -21 49 -175 7 -50 8 -53 36 -53 35 0 35 4 14 140
-18 116 -18 110 -1 110 7 0 30 18 49 39 68 75 75 192 14 231 -24 15 -197 27
-209 14z m182 -73 c13 -25 -4 -107 -29 -140 -12 -16 -31 -25 -64 -28 l-45 -5
9 43 c6 24 17 68 25 97 15 51 16 52 54 52 29 0 42 -5 50 -19z"/>
</g>
</svg>
